# 3ds Max Wavefront OBJ Exporter v0.97b - (c)2007 guruware
# File Created: 26.01.2019 12:02:33

mtllib piedra1.mtl

#
# object piedra1
#

v  -4.2495 0.7032 2.6623
v  -4.5114 0.7778 2.1428
v  -4.2518 0.9833 2.3846
v  -5.4516 1.9212 3.4897
v  -5.4631 1.8953 2.7051
v  -5.8005 1.6082 3.0044
v  -4.1806 1.7540 3.2120
v  -4.3069 1.7218 3.8857
v  -3.9874 1.2447 3.5837
v  -5.2367 1.3073 4.3024
v  -5.5362 1.0768 4.0611
v  -4.9128 1.0060 4.3374
v  -5.1775 0.4560 3.3172
v  -5.1781 0.4469 2.9826
v  -4.8939 0.4249 2.9908
v  -5.6527 1.6977 2.4637
v  -4.9138 2.0143 2.7505
v  -5.0105 1.9766 3.7075
v  -4.7001 1.9862 3.4706
v  -4.6161 1.2369 4.4360
v  -4.5713 0.7499 4.2199
v  -4.2497 0.9092 4.1762
v  -4.3989 1.0371 4.3607
v  -4.5934 0.5077 3.6216
v  -4.7067 0.5034 2.5202
v  -4.1820 0.7151 2.9584
v  -5.4545 1.7701 2.1353
v  -5.3397 1.3876 1.7715
v  -5.7464 1.3659 2.1323
v  -5.7368 1.1711 2.0604
v  -5.4798 1.0315 1.8060
v  -5.7701 0.9069 2.3100
v  -4.5418 1.3598 2.0013
v  -5.0602 1.4472 1.7747
v  -4.7988 1.6737 1.9750
v  -4.3942 1.9169 3.1690
v  -4.2573 1.7657 2.7051
v  -4.5809 1.9209 2.4943
v  -5.1853 0.5788 3.9082
v  -5.5381 0.7997 3.8999
v  -5.4170 0.5699 3.5975
v  -5.8873 1.1430 2.6307
v  -5.0271 1.0280 1.7232
v  -5.4464 0.5316 2.9768
v  -5.5057 0.7459 2.0736
v  -5.1779 0.5588 2.2357
v  -4.2642 1.4714 4.1694
v  -4.1765 1.2089 4.1946
v  -4.8168 1.8856 4.0268
v  -5.6265 0.7390 3.5901
v  -5.7200 0.9501 3.7764
v  -5.8185 0.9190 3.2711
v  -5.5246 1.3559 4.1195
v  -5.7278 1.3980 3.8720
v  -4.0187 0.9418 2.9247
v  -4.0573 1.2207 2.6402
v  -4.3433 0.6525 3.7599
v  -5.5646 1.2744 1.8717
v  -5.3503 0.8264 1.8467
v  -4.8496 0.6722 2.0152
v  -5.1099 1.6911 1.8937
v  -4.8820 1.5194 4.3688
v  -4.3870 1.4088 4.3415
v  -4.4938 1.6869 4.1817
v  -4.8297 1.7499 4.2388
v  -4.3366 1.5135 2.2644
v  -4.5333 0.6067 3.9307
v  -5.7839 1.5579 2.5360
v  -5.8670 1.4073 3.2863
v  -5.9004 1.1622 3.2759
v  -5.1571 1.8728 2.1156
v  -5.2257 1.9926 2.6977
v  -4.8244 1.8827 2.1654
v  -5.3624 1.8081 3.9952
v  -5.1265 1.7801 4.1606
v  -4.5511 0.5844 2.4517
v  -4.0892 1.4668 2.6881
v  -4.3706 1.7108 2.3881
v  -3.9999 0.9860 3.5855
v  -5.6759 0.6953 2.6412
v  -5.0406 1.2181 1.7144
v  -5.7341 1.6263 3.5762
v  -5.0517 1.9063 3.9791
v  -4.6004 1.8397 4.0112
v  -4.1817 1.2434 2.3975
v  -4.8973 0.7468 4.1924
v  -4.8788 0.5483 3.9634
v  -4.8826 0.4654 3.6531
# 88 vertices

vn 0.6655 -0.7011 -0.2562
vn 0.6073 -0.4866 -0.6280
vn 0.7979 -0.2806 -0.5336
vn -0.4604 0.8791 0.1232
vn -0.5212 0.8478 -0.0978
vn -0.8529 0.5216 -0.0230
vn 0.7885 0.6139 0.0371
vn 0.6738 0.6859 0.2748
vn 0.9736 0.1824 0.1372
vn -0.4113 0.0111 0.9115
vn -0.6274 -0.2713 0.7299
vn -0.2248 -0.3553 0.9073
vn -0.2263 -0.9711 0.0761
vn -0.1945 -0.9796 -0.0507
vn 0.1001 -0.9940 -0.0445
vn -0.7088 0.6724 -0.2134
vn 0.0639 0.9947 -0.0805
vn -0.0541 0.9857 0.1593
vn 0.1943 0.9756 0.1027
vn 0.0582 -0.0141 0.9982
vn 0.1545 -0.7189 0.6777
vn 0.6834 -0.5104 0.5220
vn 0.3669 -0.2896 0.8840
vn 0.3107 -0.9438 0.1132
vn 0.2246 -0.9544 -0.1965
vn 0.6449 -0.7630 -0.0446
vn -0.5223 0.7147 -0.4653
vn -0.3331 0.3120 -0.8898
vn -0.8811 0.2753 -0.3845
vn -0.8699 -0.0842 -0.4861
vn -0.5055 -0.2347 -0.8303
vn -0.8518 -0.4375 -0.2882
vn 0.6135 0.1224 -0.7802
vn 0.1645 0.3439 -0.9245
vn 0.4053 0.5075 -0.7604
vn 0.4280 0.9037 0.0128
vn 0.7078 0.6719 -0.2182
vn 0.3719 0.8919 -0.2572
vn -0.3145 -0.8174 0.4827
vn -0.5817 -0.5807 0.5696
vn -0.4609 -0.8628 0.2079
vn -0.9908 -0.0759 -0.1116
vn 0.1921 -0.2634 -0.9454
vn -0.4573 -0.8892 -0.0135
vn -0.5379 -0.7225 -0.4345
vn -0.1643 -0.9326 -0.3213
vn 0.7549 0.4557 0.4716
vn 0.8382 0.0442 0.5436
vn 0.1063 0.9093 0.4024
vn -0.7076 -0.6778 0.2000
vn -0.8492 -0.3416 0.4028
vn -0.8732 -0.4794 0.0876
vn -0.6496 0.1294 0.7492
vn -0.8572 0.1823 0.4817
vn 0.9414 -0.3044 -0.1453
vn 0.9494 -0.0110 -0.3138
vn 0.5815 -0.7912 0.1895
vn -0.6260 0.2547 -0.7371
vn -0.2687 -0.6128 -0.7431
vn 0.2344 -0.7412 -0.6291
vn -0.0460 0.6166 -0.7860
vn -0.1161 0.3187 0.9407
vn 0.4569 0.3278 0.8269
vn 0.4089 0.6775 0.6114
vn 0.0520 0.6770 0.7341
vn 0.7300 0.3328 -0.5970
vn 0.3147 -0.8712 0.3768
vn -0.8844 0.4312 -0.1788
vn -0.9636 0.2490 0.0974
vn -0.9897 -0.0901 0.1112
vn -0.1423 0.8833 -0.4467
vn -0.2084 0.9718 -0.1100
vn 0.2508 0.8427 -0.4765
vn -0.5018 0.6944 0.5158
vn -0.2847 0.6344 0.7187
vn 0.4389 -0.8508 -0.2888
vn 0.9158 0.3196 -0.2434
vn 0.6593 0.5853 -0.4720
vn 0.9227 -0.3573 0.1451
vn -0.6725 -0.7324 -0.1061
vn 0.1686 0.0831 -0.9822
vn -0.8183 0.5284 0.2262
vn -0.1183 0.9179 0.3787
vn 0.3285 0.8713 0.3646
vn 0.8322 0.0030 -0.5545
vn -0.1724 -0.6343 0.7536
vn 0.0119 -0.8787 0.4772
vn 0.0060 -0.9847 0.1744
# 88 vertex normals

vt 0.7295 0.1720 0.0000
vt 0.7476 0.0405 0.0000
vt 0.7977 0.1046 0.0000
vt 0.5620 0.6849 0.0000
vt 0.6142 0.5012 0.0000
vt 0.6747 0.5928 0.0000
vt 0.9853 0.3068 0.0000
vt 0.9774 0.4675 0.0000
vt 0.8613 0.4010 0.0000
vt 0.8560 0.6174 0.0000
vt 0.9189 0.5561 0.0000
vt 0.9208 0.7024 0.0000
vt 0.2322 0.1152 0.0000
vt 0.3134 0.1221 0.0000
vt 0.3054 0.1909 0.0000
vt 0.6740 0.4564 0.0000
vt 0.4822 0.4773 0.0000
vt 0.4446 0.7084 0.0000
vt 0.3866 0.6331 0.0000
vt 0.8577 0.7660 0.0000
vt 0.9739 0.7938 0.0000
vt 0.9271 0.8682 0.0000
vt 0.9004 0.8251 0.0000
vt 0.1461 0.2504 0.0000
vt 0.4155 0.2462 0.0000
vt 0.2981 0.3642 0.0000
vt 0.7589 0.9995 0.0000
vt 0.7234 0.9064 0.0000
vt 0.8297 0.9011 0.0000
vt 0.5506 0.2038 0.0000
vt 0.6050 0.1267 0.0000
vt 0.6082 0.2714 0.0000
vt 0.5348 0.8996 0.0000
vt 0.6557 0.9209 0.0000
vt 0.5965 0.9760 0.0000
vt 0.3336 0.5429 0.0000
vt 0.3307 0.4252 0.0000
vt 0.4201 0.3960 0.0000
vt 0.0891 0.1007 0.0000
vt 0.0986 0.0154 0.0000
vt 0.1694 0.0511 0.0000
vt 0.1095 0.7073 0.0000
vt 0.1163 0.8424 0.0000
vt 0.0520 0.7826 0.0000
vt 0.5304 0.7580 0.0000
vt 0.6465 0.8189 0.0000
vt 0.3205 0.0572 0.0000
vt 0.5408 0.0620 0.0000
vt 0.4945 0.1380 0.0000
vt 0.9165 0.5372 0.0000
vt 0.8526 0.5451 0.0000
vt 0.3790 0.7712 0.0000
vt 0.0111 0.4692 0.0000
vt 0.0625 0.4260 0.0000
vt 0.0549 0.5506 0.0000
vt 0.1613 0.3386 0.0000
vt 0.1716 0.4029 0.0000
vt 0.7876 0.2406 0.0000
vt 0.8555 0.1708 0.0000
vt 0.1072 0.3081 0.0000
vt 0.7581 0.8197 0.0000
vt 0.7800 0.8788 0.0000
vt 0.7276 0.7698 0.0000
vt 0.6097 0.7323 0.0000
vt 0.6702 0.9803 0.0000
vt 0.7959 0.6961 0.0000
vt 0.8100 0.8189 0.0000
vt 0.7451 0.7894 0.0000
vt 0.7384 0.7056 0.0000
vt 0.5195 0.8282 0.0000
vt 0.5295 0.9266 0.0000
vt 0.4301 0.8304 0.0000
vt 0.0698 0.2584 0.0000
vt 0.2227 0.6149 0.0000
vt 0.2105 0.7281 0.0000
vt 0.1738 0.5479 0.0000
vt 0.1141 0.5512 0.0000
vt 0.6481 0.3667 0.0000
vt 0.5794 0.3433 0.0000
vt 0.5588 0.4845 0.0000
vt 0.4980 0.3341 0.0000
vt 0.2714 0.3653 0.0000
vt 0.7385 0.6349 0.0000
vt 0.5410 0.2223 0.0000
vt 0.4288 0.2854 0.0000
vt 0.5925 0.1045 0.0000
vt 0.9154 0.1817 0.0000
vt 0.3773 0.3578 0.0000
vt 0.6011 0.6976 0.0000
vt 0.7241 0.5405 0.0000
vt 0.7242 0.7126 0.0000
vt 0.7796 0.5391 0.0000
vt 0.7983 0.4012 0.0000
vt 0.4068 0.0087 0.0000
vt 0.0005 0.7003 0.0000
vt 0.6497 0.8652 0.0000
vt 0.8528 0.8778 0.0000
vt 0.6818 0.4781 0.0000
vt 0.6515 0.3538 0.0000
vt 0.7531 0.3538 0.0000
vt 0.4372 0.7748 0.0000
vt 0.2680 0.7059 0.0000
vt 0.2807 0.5396 0.0000
vt 0.3291 0.7539 0.0000
vt 0.9747 0.1030 0.0000
vt 0.9881 0.1823 0.0000
vt 0.8610 0.1093 0.0000
vt 0.9267 0.0737 0.0000
vt 0.0601 0.0840 0.0000
vt 0.0005 0.1724 0.0000
vt 0.0027 0.0005 0.0000
vt 0.2621 0.8183 0.0000
vt 0.1637 0.8252 0.0000
vt 0.1756 0.0005 0.0000
vt 0.4434 0.8222 0.0000
vt 0.3687 0.8219 0.0000
vt 0.2933 0.7873 0.0000
vt 0.6683 0.1982 0.0000
vt 0.0043 0.3219 0.0000
vt 0.7171 0.4362 0.0000
vt 0.7324 0.2453 0.0000
vt 0.9536 0.9617 0.0000
vt 0.8909 0.9364 0.0000
vt 0.9188 0.8905 0.0000
vt 0.8893 0.0055 0.0000
vt 0.5029 0.3016 0.0000
vt 0.0259 0.3922 0.0000
vt 0.0934 0.3530 0.0000
vt 0.0141 0.1646 0.0000
vt 0.0692 0.1739 0.0000
vt 0.2271 0.4748 0.0000
vt 0.6693 0.3380 0.0000
vt 0.6642 0.1289 0.0000
vt 0.7373 0.5808 0.0000
vt 0.8512 0.5506 0.0000
vt 0.1445 0.1796 0.0000
vt 0.0752 0.3604 0.0000
vt 0.0005 0.3304 0.0000
vt 0.1329 0.3285 0.0000
vt 0.3941 0.8746 0.0000
vt 0.4796 0.9721 0.0000
vt 0.5854 0.9736 0.0000
vt 0.2989 0.4898 0.0000
vt 0.9857 0.5661 0.0000
vt 0.9829 0.7158 0.0000
vt 0.8400 0.8837 0.0000
vt 0.8080 0.9625 0.0000
vt 0.0005 0.2430 0.0000
vt 0.3714 0.3541 0.0000
vt 0.5092 0.7982 0.0000
vt 0.1415 0.8845 0.0000
vt 0.8258 0.8537 0.0000
vt 0.5823 0.2882 0.0000
vt 0.2445 0.7428 0.0000
# 154 texture coords

o piedra1
g piedra1
usemtl Material__92
s 1
f 1/1/1 2/2/2 3/3/3 
f 4/4/4 5/5/5 6/6/6 
f 7/7/7 8/8/8 9/9/9 
f 10/10/10 11/11/11 12/12/12 
f 13/13/13 14/14/14 15/15/15 
f 16/16/16 6/6/6 5/5/5 
f 17/17/17 18/18/18 19/19/19 
f 12/12/12 20/20/20 10/10/10 
f 21/21/21 22/22/22 23/23/23 
f 24/24/24 25/25/25 26/26/26 
f 27/27/27 28/28/28 29/29/29 
f 30/30/30 31/31/31 32/32/32 
f 33/33/33 34/34/34 35/35/35 
f 36/36/36 37/37/37 38/38/38 
f 39/39/39 40/40/40 41/41/41 
f 42/42/42 30/43/30 32/44/32 
f 33/33/33 2/45/2 43/46/43 
f 44/47/44 45/48/45 46/49/46 
f 47/50/47 48/51/48 9/9/9 
f 18/18/18 49/52/49 19/19/19 
f 50/53/50 51/54/51 52/55/52 
f 53/56/53 54/57/54 51/54/51 
f 55/58/55 56/59/56 9/9/9 
f 24/24/24 26/26/26 57/60/57 
f 31/61/31 58/62/58 28/28/28 
f 59/63/59 43/46/43 60/64/60 
f 34/34/34 61/65/61 35/35/35 
f 17/17/17 19/19/19 38/38/38 
f 10/10/10 20/20/20 62/66/62 
f 63/67/63 64/68/64 65/69/65 
f 56/59/56 55/58/55 3/3/3 
f 33/70/33 35/71/35 66/72/66 
f 67/73/67 24/24/24 57/60/57 
f 41/41/41 13/13/13 39/39/39 
f 6/74/6 68/75/68 69/76/69 
f 70/77/70 51/54/51 54/57/54 
f 16/16/16 5/5/5 27/78/27 
f 71/79/71 72/80/72 73/81/73 
f 74/82/74 54/57/54 53/56/53 
f 62/66/62 75/83/75 10/10/10 
f 25/25/25 60/84/60 76/85/76 
f 46/49/46 59/86/59 60/84/60 
f 77/87/77 7/7/7 9/9/9 
f 38/38/38 37/37/37 78/88/78 
f 57/89/57 26/90/26 79/91/79 
f 22/92/22 79/93/79 48/51/48 
f 45/48/45 44/47/44 80/94/80 
f 52/55/52 80/95/80 50/53/50 
f 81/96/81 34/34/34 33/33/33 
f 28/28/28 81/96/81 31/61/31 
f 20/20/20 63/67/63 62/66/62 
f 23/23/23 22/22/22 48/97/48 
f 74/98/74 4/99/4 82/100/82 
f 18/18/18 83/101/83 49/52/49 
f 36/36/36 8/102/8 7/103/7 
f 8/102/8 36/36/36 84/104/84 
f 78/105/78 37/106/37 77/87/77 
f 77/87/77 85/107/85 66/108/66 
f 21/21/21 23/23/23 12/12/12 
f 39/109/39 86/110/86 40/111/40 
f 68/75/68 30/43/30 42/42/42 
f 68/75/68 27/112/27 29/113/29 
f 60/84/60 25/25/25 46/49/46 
f 15/15/15 14/14/14 46/49/46 
f 50/114/50 80/94/80 44/47/44 
f 14/14/14 13/13/13 41/41/41 
f 75/115/75 65/116/65 49/52/49 
f 65/116/65 64/117/64 84/104/84 
f 32/32/32 31/31/31 45/118/45 
f 45/48/45 59/86/59 46/49/46 
f 22/119/22 67/73/67 57/60/57 
f 57/120/57 79/93/79 22/92/22 
f 3/3/3 55/58/55 1/1/1 
f 55/58/55 79/93/79 26/121/26 
f 48/122/48 47/123/47 63/124/63 
f 48/97/48 63/67/63 23/23/23 
f 33/125/33 3/3/3 2/2/2 
f 66/108/66 85/107/85 33/125/33 
f 76/85/76 60/84/60 2/126/2 
f 60/64/60 43/46/43 2/45/2 
f 9/9/9 79/93/79 55/58/55 
f 9/9/9 48/51/48 79/93/79 
f 51/54/51 50/53/50 40/127/40 
f 51/54/51 11/128/11 53/56/53 
f 72/80/72 71/79/71 27/78/27 
f 61/65/61 28/28/28 27/27/27 
f 42/42/42 69/76/69 68/75/68 
f 54/57/54 69/76/69 70/77/70 
f 86/129/86 87/130/87 67/73/67 
f 24/24/24 67/73/67 87/130/87 
f 28/28/28 61/65/61 34/34/34 
f 81/96/81 28/28/28 34/34/34 
f 38/38/38 78/88/78 73/81/73 
f 38/38/38 73/81/73 17/17/17 
f 82/131/82 54/57/54 74/82/74 
f 82/131/82 69/76/69 54/57/54 
f 80/95/80 52/55/52 32/44/32 
f 45/118/45 80/132/80 32/32/32 
f 84/104/84 64/117/64 8/102/8 
f 47/50/47 9/9/9 8/8/8 
f 18/18/18 4/4/4 83/101/83 
f 72/80/72 4/4/4 18/18/18 
f 59/133/59 45/118/45 31/31/31 
f 43/46/43 59/63/59 31/61/31 
f 76/85/76 26/26/26 25/25/25 
f 55/58/55 26/121/26 1/1/1 
f 69/76/69 42/42/42 70/77/70 
f 32/44/32 52/55/52 42/42/42 
f 7/7/7 77/87/77 37/106/37 
f 37/37/37 36/36/36 7/103/7 
f 49/52/49 83/101/83 75/115/75 
f 74/134/74 53/135/53 75/83/75 
f 23/23/23 63/67/63 20/20/20 
f 20/20/20 12/12/12 23/23/23 
f 87/130/87 88/136/88 24/24/24 
f 24/24/24 88/136/88 15/15/15 
f 58/137/58 29/138/29 28/139/28 
f 30/43/30 68/75/68 29/113/29 
f 77/87/77 66/108/66 78/105/78 
f 66/72/66 35/71/35 78/140/78 
f 15/15/15 25/25/25 24/24/24 
f 46/49/46 25/25/25 15/15/15 
f 17/17/17 73/81/73 72/80/72 
f 18/18/18 17/17/17 72/80/72 
f 73/141/73 78/140/78 35/71/35 
f 73/141/73 35/71/35 61/142/61 
f 69/76/69 82/131/82 6/74/6 
f 6/74/6 82/131/82 4/143/4 
f 40/144/40 86/145/86 11/11/11 
f 51/54/51 40/127/40 11/128/11 
f 77/87/77 56/59/56 85/107/85 
f 9/9/9 56/59/56 77/87/77 
f 43/46/43 81/96/81 33/33/33 
f 31/61/31 81/96/81 43/46/43 
f 44/47/44 41/41/41 50/114/50 
f 50/114/50 41/41/41 40/40/40 
f 70/77/70 52/55/52 51/54/51 
f 70/77/70 42/42/42 52/55/52 
f 11/11/11 10/10/10 53/135/53 
f 53/135/53 10/10/10 75/83/75 
f 47/123/47 64/146/64 63/124/63 
f 47/123/47 8/147/8 64/146/64 
f 38/38/38 19/19/19 36/36/36 
f 84/104/84 36/36/36 19/19/19 
f 22/119/22 21/148/21 67/73/67 
f 67/73/67 21/148/21 86/129/86 
f 62/66/62 65/69/65 75/83/75 
f 65/69/65 62/66/62 63/67/63 
f 76/85/76 2/126/2 1/149/1 
f 76/85/76 1/149/1 26/26/26 
f 72/80/72 5/5/5 4/4/4 
f 72/80/72 27/78/27 5/5/5 
f 83/101/83 74/150/74 75/115/75 
f 83/101/83 4/4/4 74/150/74 
f 29/113/29 58/151/58 30/43/30 
f 30/152/30 58/62/58 31/61/31 
f 61/153/61 71/79/71 73/81/73 
f 27/78/27 71/79/71 61/153/61 
f 16/154/16 27/112/27 68/75/68 
f 6/74/6 16/154/16 68/75/68 
f 46/49/46 14/14/14 44/47/44 
f 41/41/41 44/47/44 14/14/14 
f 84/104/84 49/52/49 65/116/65 
f 19/19/19 49/52/49 84/104/84 
f 15/15/15 88/136/88 13/13/13 
f 39/39/39 13/13/13 88/136/88 
f 85/107/85 3/3/3 33/125/33 
f 3/3/3 85/107/85 56/59/56 
f 86/145/86 12/12/12 11/11/11 
f 12/12/12 86/145/86 21/21/21 
f 88/136/88 87/130/87 39/39/39 
f 39/39/39 87/130/87 86/129/86 
# 0 polygons - 172 triangles

